<svg id="Layer_1" data-name="Layer 1" xmlns="http://www.w3.org/2000/svg" viewBox="0 0 495.5 498"><defs><style>.cls-1{fill:#aeff6e;}.cls-1,.cls-2{fill-rule:evenodd;}.cls-2{fill:#fff700;}</style></defs><title>candy</title><path class="cls-1" d="M251,250c-51,76-151,103-236,78C-1,278,0,224,14,174c54,70,152,108,237,76" transform="translate(-3.25 -1)"/><path class="cls-2" d="M105.53,451.73C65,420,32,378,15,328c85,25,186-2,236-78,4,91-62,171-145.47,201.73" transform="translate(-3.25 -1)"/><path class="cls-1" d="M251,250c57,71,51,176,1,249-52-2-103-16-146-47,83-31,149-111,145-202" transform="translate(-3.25 -1)"/><path class="cls-2" d="M251,250c88,24,144,112,147,201-43,30-94,46-146,48,49-73,56-178-1-249" transform="translate(-3.25 -1)"/><path class="cls-1" d="M251,250c85-32,183,5,237,76a262.49,262.49,0,0,1-90,125c-3-89-59-177-147-201" transform="translate(-3.25 -1)"/><path class="cls-2" d="M251,250c51-76,151-103,236-78,16,50,15,104,1,154-54-70-152-108-237-76" transform="translate(-3.25 -1)"/><path class="cls-1" d="M487.26,172.3C402,147,301,174,251,250c-4-91,62-171,145-202,42,31,73,75,91.26,124.3" transform="translate(-3.25 -1)"/><path class="cls-2" d="M251,250c-57-71-51-176-1-249,52,2,103,17,146,47C313,79,247,159,251,250" transform="translate(-3.25 -1)"/><path class="cls-1" d="M251,250C163,226,107,138,104,49,147,19,198,3,250,1c-49,73-56,178,1,249" transform="translate(-3.25 -1)"/><path class="cls-2" d="M251,250c-85,32-183-5-237-76,17-50,49-92,90-125,3,89,59,177,147,201" transform="translate(-3.25 -1)"/></svg>